<svg xmlns="http://www.w3.org/2000/svg" viewBox="0 0 600 600">
  <g fill="none" stroke="#1a1a2e" stroke-width="10" stroke-linecap="round" stroke-linejoin="round">
    <!-- ears -->
    <path d="M170 210 L140 90 L250 170 Z"/>
    <path d="M430 210 L460 90 L350 170 Z"/>
    <!-- head -->
    <circle cx="300" cy="300" r="150"/>
    <!-- inner ears -->
    <path d="M185 195 L172 130 L225 178 Z" stroke-width="6"/>
    <path d="M415 195 L428 130 L375 178 Z" stroke-width="6"/>
    <!-- eyes -->
    <ellipse cx="250" cy="290" rx="20" ry="26"/>
    <ellipse cx="350" cy="290" rx="20" ry="26"/>
    <!-- nose -->
    <path d="M285 335 L315 335 L300 355 Z"/>
    <!-- mouth -->
    <path d="M300 355 Q300 375 270 380"/>
    <path d="M300 355 Q300 375 330 380"/>
    <!-- whiskers -->
    <path d="M150 320 L60 305"/>
    <path d="M150 340 L60 345"/>
    <path d="M150 360 L65 385"/>
    <path d="M450 320 L540 305"/>
    <path d="M450 340 L540 345"/>
    <path d="M450 360 L535 385"/>
    <!-- body -->
    <path d="M180 430 Q300 380 420 430 Q440 520 300 540 Q160 520 180 430 Z"/>
    <!-- tail -->
    <path d="M420 470 Q520 460 500 380 Q490 340 450 350"/>
  </g>
</svg>
